# xmcd CD database file
#
# Track frame offsets:
#	150
#	26082
#	56373
#	71534
#	82384
#	138981
#	167216
#	179247
#	196535
#	230863
#	267695
#
# Disc length: 4459 seconds
#
# Revision: 9
# Processed by: cddbd v1.5.2PL0 Copyright (c) Steve Scherf et al.
# Submitted via: CDex 1.51
#
DISCID=a911690b
DTITLE=Beethoven - Sviatoslav Richter  [Vol.1-5]  Sonatas Op.90-109-110-111
DYEAR=1900
DGENRE=Piano
TTITLE0=Piano Sonata in E minor Op.90 - 1. Mit Lebhaftigkeit und durchaus mit Empfindung und Ausdruck {1965}
TTITLE1=Piano Sonata in E minor Op.90 - 2. Nicht zu geschwind und sehr singbar vorzutragen
TTITLE2=Piano Sonata in E major Op.109 - 1. Vivace ma non troppo-Adagio espressivo-tempo I  {1972}
TTITLE3=Piano Sonata in E major Op.109 - 2. Prestissimo
TTITLE4=Piano Sonata in E major Op.109 - 3. Andante molto cantabile ed espressivo
TTITLE5=Piano Sonata in A flat major Op.110 - 1. Moderato cantabile molto espressivo  {1965}
TTITLE6=Piano Sonata in A flat major Op.110 - 2. Allegro molto
TTITLE7=Piano Sonata in A flat major Op.110 - 3. Adagio ma non troppo-Arioso dolente
TTITLE8=Piano Sonata in A flat major Op.110 - 4. Fuga, allegro ma non troppo - L'istesso tempo di arioso
TTITLE9=Piano Sonata in C minor Op. 111 - 1. Maestoso-allegro con brio ed appassionato  {1975}
TTITLE10=Piano Sonata in C minor Op. 111 - 2. Arietta, adagio molto semplice e cantabile
EXTD=
EXTT0=
EXTT1=
EXTT2=
EXTT3=
EXTT4=
EXTT5=
EXTT6=
EXTT7=
EXTT8=
EXTT9=
EXTT10=
PLAYORDER=
